<?xml version="1.0" encoding="utf-8"?><!DOCTYPE svg PUBLIC "-//W3C//DTD SVG 1.1//EN" "http://www.w3.org/Graphics/SVG/1.1/DTD/svg11.dtd"><svg viewBox="0 0 599 577" xmlns="http://www.w3.org/2000/svg" xmlns:xlink="http://www.w3.org/1999/xlink"><style>:root>svg{display:none}:root>svg:target{display:block}</style><svg viewBox="0 0 8 4" id="arrow_extra2" xmlns="http://www.w3.org/2000/svg"><path d="M3.475 3.894L.223.627a.37.37 0 010-.52.363.363 0 01.516 0l2.994 3.008L6.728.108a.364.364 0 01.516 0 .37.37 0 010 .52L3.992 3.893a.367.367 0 01-.517 0z"/></svg><svg viewBox="0 0 8 4" id="arrow_extra3" xmlns="http://www.w3.org/2000/svg"><path d="M3.992.106l3.252 3.267a.37.37 0 010 .52.363.363 0 01-.516 0L3.734.884.739 3.892a.364.364 0 01-.516 0 .37.37 0 010-.52L3.475.107a.367.367 0 01.517 0z"/></svg><svg viewBox="0 0 307.046 307.046" id="arrow_right" xmlns="http://www.w3.org/2000/svg"><path d="M281.828 142.427L144.002 4.597c-6.129-6.129-16.07-6.129-22.199 0l-11.101 11.101c-6.133 6.133-6.133 16.076 0 22.201l92.071 92.077H36.321c-8.668 0-15.701 7.035-15.701 15.701v15.699c0 8.664 7.033 15.701 15.701 15.701h166.445l-92.063 92.059c-6.133 6.136-6.133 16.086 0 22.209l11.101 11.101c6.129 6.136 16.07 6.136 22.199 0l137.826-137.831c6.13-6.128 6.13-16.059-.001-22.188z"/></svg><svg viewBox="0 0 11 20" id="facebook" xmlns="http://www.w3.org/2000/svg"><path d="M9.12 3.32H11V.14A26.111 26.111 0 008.26 0C5.54 0 3.68 1.66 3.68 4.7v2.62H.61v3.56h3.07V20h3.68v-9.12h3.06l.46-3.56H7.36V5.05c0-1.05.28-1.73 1.76-1.73z"/></svg><svg viewBox="0 0 599 577" id="fromwhom" xmlns="http://www.w3.org/2000/svg"><path opacity=".05" fill-rule="evenodd" clip-rule="evenodd" d="M-7.644 65.612C58.013 24.312 140.788 1.432 226.49.892c85.702-.54 168.993 21.294 235.594 61.76 66.601 40.465 112.364 97.041 129.442 160.029 17.079 62.988 4.41 128.464-35.834 185.203-22.028 31.057-32.677 25.362-29.197 62.064l36.874 83.027c8.08 18.201-14.889 28.921-36.072 19.875l-98.914-42.266c-40.001-7.517-39.727-1.081-77.224 8.704-81.558 21.277-170.487 20.441-251.323-2.362C19 514.123-48.628 470.795-91.288 414.477s-57.652-122.063-42.37-185.801c15.281-63.738 59.871-121.438 126.014-163.064z"/></svg><svg viewBox="0 0 19 22" id="promo_play" xmlns="http://www.w3.org/2000/svg"><path d="M17.286 9.304a2 2 0 010 3.392L3.06 21.587C1.728 22.42 0 21.462 0 19.892V2.108C0 .538 1.728-.42 3.06.412l14.226 8.892z"/></svg><svg viewBox="0 0 20 18" id="twitter" xmlns="http://www.w3.org/2000/svg"><path d="M20 2.8a8.49 8.49 0 01-2.36.64 4.13 4.13 0 001.81-2.27 8.21 8.21 0 01-2.61 1 4.1 4.1 0 00-7 3.74 11.64 11.64 0 01-8.45-4.29 4.16 4.16 0 00-.55 2.07A4.09 4.09 0 002.66 7.1 4.05 4.05 0 01.8 6.59v.05a4.1 4.1 0 003.3 4 3.929 3.929 0 01-1.1.17 4.896 4.896 0 01-.77-.07 4.11 4.11 0 003.83 2.84A8.22 8.22 0 010 15.28a11.57 11.57 0 006.29 1.85A11.59 11.59 0 0018 5.45v-.53a8.43 8.43 0 002-2.12z"/></svg><svg viewBox="0 0 20 12" id="vk" xmlns="http://www.w3.org/2000/svg"><path d="M17.802 8.298s1.617 1.597 2.017 2.336c.008.01.014.023.018.035.163.273.203.487.123.645-.135.261-.592.392-.747.403h-2.858c-.199 0-.613-.052-1.117-.4-.385-.269-.768-.712-1.139-1.145-.554-.643-1.033-1.2-1.518-1.2a.548.548 0 00-.18.03c-.367.115-.833.638-.833 2.031 0 .436-.344.684-.585.684H9.674c-.446 0-2.768-.156-4.827-2.327C2.324 6.732.058 1.4.036 1.353-.105 1.008.191.82.511.82h2.886c.387 0 .513.234.601.444.102.241.48 1.205 1.1 2.288 1.004 1.762 1.621 2.48 2.114 2.48a.527.527 0 00.264-.07c.644-.355.524-2.655.494-3.129 0-.092-.001-1.027-.331-1.479-.236-.324-.638-.45-.881-.496.065-.094.203-.238.38-.323.441-.22 1.238-.252 2.029-.252h.439c.858.012 1.08.067 1.392.146.628.15.64.557.585 1.943-.016.396-.033.842-.033 1.367 0 .112-.005.237-.005.364-.019.711-.044 1.512.458 1.841a.41.41 0 00.217.062c.174 0 .695 0 2.108-2.425.62-1.07 1.1-2.334 1.133-2.429.028-.053.112-.202.214-.262a.479.479 0 01.236-.056h3.395c.37 0 .621.056.67.196.082.227-.016.92-1.566 3.016-.261.35-.49.651-.691.915-1.405 1.844-1.405 1.937.083 3.337z"/></svg><svg viewBox="0 0 24 16" id="youtube" xmlns="http://www.w3.org/2000/svg"><path d="M23 5.71a8.499 8.499 0 00-.91-4.13 2.92 2.92 0 00-1.72-1A78.36 78.36 0 0012 .27a78.45 78.45 0 00-8.34.3 2.87 2.87 0 00-1.46.74c-.9.83-1 2.25-1.1 3.45a48.29 48.29 0 000 6.48 9.55 9.55 0 00.3 2c.12.505.365.973.71 1.36a2.86 2.86 0 001.49.78c2.156.267 4.328.377 6.5.33 3.5.05 6.57 0 10.2-.28a2.88 2.88 0 001.53-.78c.28-.28.49-.622.61-1 .358-1.097.533-2.245.52-3.4.04-.56.04-3.94.04-4.54zM9.74 10.85V4.66l5.92 3.11c-1.66.92-3.85 1.96-5.92 3.08z"/></svg></svg>