<?xml version="1.0" encoding="utf-8"?><svg viewBox="0 0 8 4" xmlns="http://www.w3.org/2000/svg" xmlns:xlink="http://www.w3.org/1999/xlink"><style>:root>svg{display:none}:root>svg:target{display:block}</style><svg viewBox="0 0 8 4" id="arrow_extra2" xmlns="http://www.w3.org/2000/svg"><path d="M3.475 3.894L.223.627a.37.37 0 010-.52.363.363 0 01.516 0l2.994 3.008L6.728.108a.364.364 0 01.516 0 .37.37 0 010 .52L3.992 3.893a.367.367 0 01-.517 0z"/></svg><svg viewBox="0 0 8 4" id="arrow_extra3" xmlns="http://www.w3.org/2000/svg"><path d="M3.992.106l3.252 3.267a.37.37 0 010 .52.363.363 0 01-.516 0L3.734.884.739 3.892a.364.364 0 01-.516 0 .37.37 0 010-.52L3.475.107a.367.367 0 01.517 0z"/></svg></svg>